<svg class="icon-misc" id="icon-misc-recent_essays" xmlns="http://www.w3.org/2000/svg" width="50" height="50" viewBox="0 0 50.1 49.9">
	<path d="M30 0c0.3 0 0.5 0 0.8 0 2 1.1 2.3 3.9 3.1 6 1.6 4.4 3.2 8.7 4.9 13.4 0.6 1.8 2.6 5.9 0 6.4 -2.5 0.5-3-2.9-3.5-4.3 -2.1-5.8-4.3-11.5-6.2-17.1C20.7 5.8 13 7.8 4.7 9.2c1.4 4.7 3.2 10.6 5.3 16.4 1.9 5.3 3.9 11.3 7 14.4 4.2 4.1 11.4 2.8 10.3-5.5 7.5-2.8 14.6-5.9 22-8.8 2.5 11.3-6.3 12.7-13.6 16.2 -4 1.9-7.5 4.4-11.9 4.7 -5.1 0.3-9.1-2.6-11.3-5.6C6.3 32.7 4.3 18.6 0 8.4c0-0.5 0-0.9 0-1.4 1.8-1.9 5.4-2 8.8-2.7C15.5 2.9 24.1 1.3 30 0z"/>
</svg>
