<svg class="icon-misc" id="icon-misc-eye" xmlns="http://www.w3.org/2000/svg" width="50" height="32" viewBox="0 0 50 32.1">
	<path d="M23.6 0.1c9.9-0.7 17.4 4 22.4 9.4 1.6 1.7 4 4.3 4 6.6 0 2.1-2.4 4.9-3.9 6.4 -4.6 5.1-12.1 9.7-21.2 9.6 -9.4 0-16-4.4-21-9.8C2.5 20.8 0 18.3 0 16c0-2 2.4-4.7 3.8-6.2 3.2-3.5 6.8-6.2 11.5-8C17.7 0.9 20.3 0.3 23.6 0.1zM18.2 7.4c-0.7 1-3.1 5.6-0.9 6.3 2.2 0.7 1.8-2.2 2.3-3.5 0.5-1.4 2.4-3 3.6-3.3 1-0.3 3.3 0.1 3.2-1.7 -0.1-1.3-1.7-1.2-2.5-1.1C21.1 4.4 19.3 6.1 18.2 7.4zM3.6 16.1c4.7 6.4 10.9 12.5 21.4 12.5 10.5 0 16.8-6.1 21.3-12.6 -2.5-4.1-6.2-7.9-10.6-9.6 4.8 8-1.4 17.8-9.2 18.5 -7.5 0.7-14.2-4.5-14.1-12.7C12.5 9.7 13.4 7.9 14.1 6.2 9.6 8.6 6 11.8 3.6 16.1z"/>
</svg>
