<svg xmlns="http://www.w3.org/2000/svg" class="icon-misc login-sprite" style="display: none !important;">
	<symbol id="icon-misc-eye" class="fa-eye" xmlns="http://www.w3.org/2000/svg" viewBox="0 0 50 32" xml:space="preserve">
		<title>Open Eye</title>
		<path d="M23.6 0.1c9.9-0.7 17.4 4 22.4 9.4 1.6 1.7 4 4.3 4 6.6 0 2.1-2.4 4.9-3.9 6.4 -4.6 5.1-12.1 9.7-21.2 9.6 -9.4 0-16-4.4-21-9.8C2.5 20.8 0 18.3 0 16c0-2 2.4-4.7 3.8-6.2 3.2-3.5 6.8-6.2 11.5-8C17.7 0.9 20.3 0.3 23.6 0.1zM18.2 7.4c-0.7 1-3.1 5.6-0.9 6.3 2.2 0.7 1.8-2.2 2.3-3.5 0.5-1.4 2.4-3 3.6-3.3 1-0.3 3.3 0.1 3.2-1.7 -0.1-1.3-1.7-1.2-2.5-1.1C21.1 4.4 19.3 6.1 18.2 7.4zM3.6 16.1c4.7 6.4 10.9 12.5 21.4 12.5 10.5 0 16.8-6.1 21.3-12.6 -2.5-4.1-6.2-7.9-10.6-9.6 4.8 8-1.4 17.8-9.2 18.5 -7.5 0.7-14.2-4.5-14.1-12.7C12.5 9.7 13.4 7.9 14.1 6.2 9.6 8.6 6 11.8 3.6 16.1z"/>
	</symbol>

	<symbol id="icon-misc-eye2" class="fa-eye-slash" xmlns="http://www.w3.org/2000/svg" viewBox="0 0 50 38" xml:space="preserve">
		<title>Closed Eye</title>
		<path d="M36.5 2.4c-1.3 3.1-3.1 6-4.7 9 -1.6 2.9-3.3 5.8-5 8.7 -3.3 5.9-6.2 11.9-9.9 17.4 -1.7-0.6-3.3-1.4-4.4-2.5 0.2-1 0.8-1.7 1.2-2.5 -4.3-2.3-8.1-5.1-11.3-9.1C1.4 22.1-0.1 20.4 0 18.5c0.2-2.2 3.1-5.3 4.7-7C10.1 6 19.4 1.2 29.9 3.2c0.8-0.4 1.4-3.6 2.4-3.2C33.5 0.4 35.4 1.5 36.5 2.4zM18.3 10.2c-0.7 1-3.1 5.6-0.9 6.3 2.3 0.7 1.8-2.2 2.3-3.5 0.6-1.5 2.4-3 3.6-3.4 1-0.3 3.4 0.1 3.2-1.7 -0.1-1.3-1.7-1.2-2.5-1.1C21.1 7.2 19.3 8.8 18.3 10.2zM3.6 18.8c2.9 4.6 6.7 8.2 11.9 10.5 0.7-1.4 1.5-2.6 2.1-4 -4.7-2.2-6.7-11.3-3.6-16.2C9.6 11.3 6.2 14.6 3.6 18.8z"/><path d="M25.1 34.9c0.7-1.3 1.4-2.6 2.1-3.8 9.5-1 14.8-6.1 19.2-12.2 -1.9-3.5-4.6-6.1-7.8-8.3 0.5-1.1 1.2-1.9 1.6-3.1 2 1.1 3.9 2.7 5.9 5 1.6 1.8 4 4.2 3.9 6.4 -0.1 2.2-2.6 4.7-4 6.3C41.3 30.6 34.2 34.7 25.1 34.9z"/><path d="M37.2 13c1.4 6.9-2.7 11.6-7.4 13.8C31.7 22.3 34.9 17.8 37.2 13z"/>
	</symbol>
</svg>
