<svg xmlns="http://www.w3.org/2000/svg" class="icon-slide slide-sprite" style="display: none !important;">
	<symbol id="icon-slide-pause" xmlns="http://www.w3.org/2000/svg" viewBox="0 0 50 50" xml:space="preserve">
		<path d="M25.1 0.3c13.7 0 24.8 11.2 24.8 25 0 13.8-11.1 25-24.8 25 -13.7 0-24.8-11.2-24.8-25C0.3 11.4 11.4 0.3 25.1 0.3zM38.3 35.3V15.1c0-0.6-0.4-1-1-1h-9c-0.5 0-1 0.4-1 1v20.1c0 0.6 0.5 1 1 1h9C37.8 36.3 38.3 35.8 38.3 35.3zM22.3 35.3V15.1c0-0.6-0.4-1-1-1h-9c-0.5 0-1 0.4-1 1v20.1c0 0.6 0.5 1 1 1h9C21.8 36.3 22.3 35.8 22.3 35.3z"/>
	</symbol>

	<symbol id="icon-slide-play" xmlns="http://www.w3.org/2000/svg" viewBox="0 0 50 50" xml:space="preserve">
		<path d="M22.5 0.1c9.5-0.8 16.6 3.1 21.1 8 3.5 3.9 6.8 10.8 6.4 18 -0.7 13.4-11.1 24-25 24 -7.5 0-13.2-3.1-17.3-7.1 -4.1-4-7.3-9.5-7.6-16.6 -0.4-8.3 2.6-14.1 6.2-18C10 4.3 15.2 0.7 22.5 0.1zM16.6 18.9c0 2.3 0 4 0 6.7 0 4.8-0.9 11.2 1.7 11.8 1.6 0.3 4-1.7 5.5-2.5 4.1-2.4 6.3-3.7 10.5-6.1 1.3-0.8 4.4-2.2 4.4-3.9 0-1.6-2.8-2.6-4.5-3.6 -3.8-2.2-6.9-4.2-10.1-6.1 -1.5-0.9-4.2-3.1-5.9-2.5C16.1 13.3 16.6 16.3 16.6 18.9z"/>
	</symbol>
</svg>
