<svg version="1.1" class="icon-exif" id="icon-exif-aperture" viewBox="0 0 64.154 64.072" overflow="visible" enable-background="new 0 0 64.154 64.072" xml:space="preserve">
	<path d="M60.739,32.037c-0.478,15.962-12.705,28.132-28.655,28.61c-15.945,0.478-28.2-13.364-28.657-28.61C2.949,16.08,16.854,3.882,32.084,3.427C48.029,2.95,60.283,16.792,60.739,32.037c0.066,2.196,3.48,2.202,3.414,0c-0.536-17.85-14.23-31.49-32.069-32.023C14.252-0.52,0.524,14.989,0.013,32.037C-0.522,49.883,15.052,63.55,32.084,64.059c17.83,0.534,31.557-14.975,32.069-32.022C64.22,29.833,60.806,29.84,60.739,32.037z"/>
	<path d="M26.364,32.037c0.39-7.163,10.862-7.164,11.25,0C38.004,39.202,26.752,39.167,26.364,32.037c-0.119-2.189-3.534-2.201-3.414,0c0.277,5.101,3.958,8.69,9.04,8.959c5.069,0.269,8.782-4.268,9.038-8.959c0.276-5.088-4.375-8.712-9.038-8.961c-5.072-0.27-8.785,4.268-9.04,8.961C22.83,34.237,26.245,34.225,26.364,32.037z"/>
	<path d="M31.894,41.623c9.694,0,19.388,0,29.08,0c2.203,0,2.203-3.414,0-3.414c-9.691,0-19.386,0-29.08,0C29.693,38.209,29.693,41.623,31.894,41.623z"/>
	<path d="M3.788,25.737c9.694,0,19.387,0,29.081,0c2.201,0,2.201-3.414,0-3.414c-9.694,0-19.387,0-29.081,0C1.586,22.324,1.586,25.737,3.788,25.737z"/>
	<path d="M41.719,32.492c0-9.694,0-19.387,0-29.081c0-2.202-3.413-2.202-3.413,0c0,9.694,0,19.387,0,29.081C38.306,34.693,41.719,34.693,41.719,32.492z"/>
	<path d="M25.8,61.192c0-9.691,0-19.386,0-29.078c0-2.202-3.414-2.202-3.414,0c0,9.692,0,19.387,0,29.078C22.386,63.396,25.8,63.396,25.8,61.192z"/>
	<path d="M38.332,39.401c6.854-6.853,13.708-13.706,20.56-20.56c1.557-1.558-0.856-3.972-2.414-2.414c-6.852,6.854-13.705,13.707-20.56,20.559C34.361,38.545,36.774,40.959,38.332,39.401z"/>
	<path d="M7.343,48.082c6.854-6.854,13.708-13.707,20.561-20.562c1.558-1.557-0.856-3.972-2.414-2.413c-6.854,6.854-13.707,13.707-20.561,20.562C3.371,47.226,5.786,49.64,7.343,48.082z"/>
	<path d="M39.437,25.709c-6.855-6.854-13.708-13.708-20.563-20.562c-1.558-1.559-3.972,0.856-2.414,2.413c6.854,6.854,13.708,13.708,20.563,20.563C38.58,29.681,40.993,27.267,39.437,25.709z"/>
	<path d="M48.082,56.823c-6.854-6.853-13.707-13.707-20.561-20.561c-1.558-1.558-3.972,0.856-2.414,2.413c6.854,6.854,13.707,13.709,20.561,20.562C47.226,60.795,49.64,58.382,48.082,56.823z"/>
</svg>
