<svg version="1.1" class="icon-exif" id="icon-exif-camera" viewBox="0 0 64.047 51.532" overflow="visible" enable-background="new 0 0 64.047 51.532" xml:space="preserve">
	<path d="M21.596,27.313c0,8.534,7.406,15.479,16.511,15.479s16.509-6.944,16.509-15.479s-7.404-15.477-16.509-15.477S21.596,18.779,21.596,27.313z M25.382,27.313c0-6.446,5.708-11.69,12.725-11.69c7.017,0,12.723,5.244,12.723,11.69s-5.706,11.693-12.723,11.693C31.089,39.007,25.382,33.76,25.382,27.313z"/>
	<path d="M29.852,0c-0.409,0-0.796,0.188-1.048,0.51c0,0-3.854,4.911-4.53,5.771c-0.375,0.001-4.512,0.006-5.904,0.007c-0.216-0.71-0.454-1.497-0.454-1.497c-0.169-0.56-0.684-0.943-1.269-0.946L8.323,3.803c-0.381-0.002-0.745,0.159-1,0.444L0.34,12.05C0.12,12.296-0.001,12.614,0,12.943l0.111,32.035c0.001,0.37,0.156,0.724,0.427,0.974l5.587,5.168c0.246,0.227,0.569,0.354,0.904,0.354l50.001,0.058c0.356,0,0.7-0.144,0.953-0.401l5.571-5.684c0.245-0.247,0.381-0.58,0.383-0.927l0.109-30.89c0-0.367-0.148-0.717-0.414-0.97l-6.193-5.895c-0.248-0.236-0.575-0.368-0.919-0.368c0,0-3.31,0-4.224,0c-0.687-0.767-5.282-5.896-5.282-5.896c-0.253-0.28-0.612-0.442-0.989-0.443C46.025,0.059,29.854,0,29.852,0z M16.395,10.289l9.178-0.012c0.408,0,0.794-0.188,1.047-0.51c0,0,3.848-4.9,4.525-5.763c1.147,0.004,12.804,0.046,13.683,0.049c0.685,0.764,5.285,5.9,5.285,5.9c0.252,0.282,0.614,0.443,0.991,0.443c0,0,3.505,0,4.349,0c0.611,0.581,3.938,3.748,4.59,4.369c-0.003,1.064-0.097,27.653-0.102,28.655c-0.472,0.481-3.437,3.505-4.03,4.112c-1.07-0.003-46.84-0.058-47.835-0.058c-0.435-0.401-3.33-3.08-3.971-3.672c-0.002-0.739-0.1-28.861-0.103-29.85c0.589-0.659,5.188-5.796,5.501-6.146c0.481,0.002,3.824,0.019,5.156,0.025c0.217,0.714,0.458,1.51,0.458,1.51C15.288,9.906,15.808,10.29,16.395,10.289z"/>
	<circle cx="11.868" cy="17.27" r="2.5"/>
</svg>
