<svg xmlns="http://www.w3.org/2000/svg" class="icon-exif exif-sprite" style="display: none !important;">
	<symbol id="icon-exif-category" viewBox="0 0 100 100" enable-background="new 0 0 100 100" xml:space="preserve">
		<title>category.svg</title>
		<path d="M64.008,72.381c4.002-3.149,12.23-11.582,15.089-21.179c-6.511-8.01-33.912-42.187-40.238-50.08C38.212,8.613,31.63,24.377,20.21,29.646c-5.247,2.56-10.477,4.156-12.467,4.721l39.077,47.32C51.235,80.263,59.958,75.56,64.008,72.381z"></path>
		<path d="M90.405,75.352c-6.5,3.781-13.381,7.281-20.674,9.929c-8.632,3.134-19.05,6.681-22.386,7.664v5.127l43.046-15.479L90.405,75.352z"></path>
		<polygon points="6.891,35.865 6.891,50.088 45.703,97.945 45.736,82.902"></polygon>
		<path d="M88.717,70.42c-5.018,3.936-11.386,7.921-18.278,11.363c-6.521,3.266-20.879,7.668-23.093,8.339v1.144c3.686-1.09,13.036-3.898,21.237-7.013c9.104-3.457,22.12-11.628,22.12-11.628L88.717,70.42z"></path>
		<path d="M80.877,50.835l-0.114,0.403c-2.851,10.142-11.25,18.858-15.762,22.409c-4.225,3.319-13.009,8.054-17.655,9.561v2.168c6.53-2.034,15.656-6.36,20.721-9.922c8.699-6.128,17.195-14.63,22.419-22.404l0.047,0.036C84.648,46.442,51.938,9.001,49.818,6.309c-0.719,1.357-1.368,2.265-2.422,2.887c10.832,13.508,28.598,35.647,33.217,41.314L80.877,50.835z"></path>
		<path d="M87.321,59.925c0,0-11.588,12.1-18.328,16.846c-5.696,4.008-14.5,7.942-21.647,10.168v1.498c0.692-0.212,1.838-0.566,3.268-1.021c5.266-1.677,14.41-4.722,19.106-7.072c9.305-4.648,17.623-10.274,22.834-15.386c0.054-0.053,0.106-0.106,0.161-0.16L87.321,59.925z"></path>
	</symbol>

	<symbol id="icon-exif-tag" viewBox="0 0 96 120" enable-background="new 0 0 96 96" xml:space="preserve">
		<title>tag.svg</title>
		<path d="M76.284,13.856c-1.604,0-3.104,0.616-4.248,1.752c-1.132,1.128-1.752,2.636-1.752,4.248c0,1.6,0.62,3.108,1.752,4.248  c2.264,2.26,6.224,2.26,8.483,0c1.133-1.132,1.756-2.64,1.756-4.248c0-1.6-0.623-3.108-1.756-4.248  C79.389,14.468,77.893,13.856,76.284,13.856z"/>
		<path d="M93.107,16.888c0-3.744-1.451-7.392-4.092-10.036C86.372,4.216,82.859,2.48,79.2,2.48h-0.005L60.813,2.024  c-0.572-0.012-1.101,0.464-1.5,0.864L2.744,59.452c-0.372,0.376-0.584,0.884-0.584,1.416s0.212,1.04,0.584,1.416L33.86,93.393  c0.392,0.392,0.904,0.584,1.416,0.584c0.512,0,1.024-0.213,1.416-0.597l56.564-56.588c0.4-0.396,0.607-0.968,0.584-1.528  L93.107,16.888z M83.352,26.924c-1.892,1.888-4.399,2.92-7.072,2.92c-2.672,0-5.18-1.04-7.075-2.92  c-1.896-1.88-2.925-4.4-2.925-7.072s1.041-5.188,2.925-7.076c3.776-3.776,10.364-3.772,14.14,0c1.889,1.888,2.924,4.404,2.924,7.076  S85.244,25.04,83.352,26.924z"/>
	</symbol>

	<symbol id="icon-exif-aperture" viewBox="0 0 64.154 64.072" overflow="visible" enable-background="new 0 0 64.154 64.072" xml:space="preserve">
		<title>aperture.svg</title>
		<path d="M60.739,32.037c-0.478,15.962-12.705,28.132-28.655,28.61c-15.945,0.478-28.2-13.364-28.657-28.61C2.949,16.08,16.854,3.882,32.084,3.427C48.029,2.95,60.283,16.792,60.739,32.037c0.066,2.196,3.48,2.202,3.414,0c-0.536-17.85-14.23-31.49-32.069-32.023C14.252-0.52,0.524,14.989,0.013,32.037C-0.522,49.883,15.052,63.55,32.084,64.059c17.83,0.534,31.557-14.975,32.069-32.022C64.22,29.833,60.806,29.84,60.739,32.037z"/>
		<path d="M26.364,32.037c0.39-7.163,10.862-7.164,11.25,0C38.004,39.202,26.752,39.167,26.364,32.037c-0.119-2.189-3.534-2.201-3.414,0c0.277,5.101,3.958,8.69,9.04,8.959c5.069,0.269,8.782-4.268,9.038-8.959c0.276-5.088-4.375-8.712-9.038-8.961c-5.072-0.27-8.785,4.268-9.04,8.961C22.83,34.237,26.245,34.225,26.364,32.037z"/>
		<path d="M31.894,41.623c9.694,0,19.388,0,29.08,0c2.203,0,2.203-3.414,0-3.414c-9.691,0-19.386,0-29.08,0C29.693,38.209,29.693,41.623,31.894,41.623z"/>
		<path d="M3.788,25.737c9.694,0,19.387,0,29.081,0c2.201,0,2.201-3.414,0-3.414c-9.694,0-19.387,0-29.081,0C1.586,22.324,1.586,25.737,3.788,25.737z"/>
		<path d="M41.719,32.492c0-9.694,0-19.387,0-29.081c0-2.202-3.413-2.202-3.413,0c0,9.694,0,19.387,0,29.081C38.306,34.693,41.719,34.693,41.719,32.492z"/>
		<path d="M25.8,61.192c0-9.691,0-19.386,0-29.078c0-2.202-3.414-2.202-3.414,0c0,9.692,0,19.387,0,29.078C22.386,63.396,25.8,63.396,25.8,61.192z"/>
		<path d="M38.332,39.401c6.854-6.853,13.708-13.706,20.56-20.56c1.557-1.558-0.856-3.972-2.414-2.414c-6.852,6.854-13.705,13.707-20.56,20.559C34.361,38.545,36.774,40.959,38.332,39.401z"/>
		<path d="M7.343,48.082c6.854-6.854,13.708-13.707,20.561-20.562c1.558-1.557-0.856-3.972-2.414-2.413c-6.854,6.854-13.707,13.707-20.561,20.562C3.371,47.226,5.786,49.64,7.343,48.082z"/>
		<path d="M39.437,25.709c-6.855-6.854-13.708-13.708-20.563-20.562c-1.558-1.559-3.972,0.856-2.414,2.413c6.854,6.854,13.708,13.708,20.563,20.563C38.58,29.681,40.993,27.267,39.437,25.709z"/>
		<path d="M48.082,56.823c-6.854-6.853-13.707-13.707-20.561-20.561c-1.558-1.558-3.972,0.856-2.414,2.413c6.854,6.854,13.707,13.709,20.561,20.562C47.226,60.795,49.64,58.382,48.082,56.823z"/>
	</symbol>

	<symbol id="icon-exif-camera" viewBox="0 0 64.047 51.532" overflow="visible" enable-background="new 0 0 64.047 51.532" xml:space="preserve">
		<title>camera.svg</title>
		<path d="M21.596,27.313c0,8.534,7.406,15.479,16.511,15.479s16.509-6.944,16.509-15.479s-7.404-15.477-16.509-15.477S21.596,18.779,21.596,27.313z M25.382,27.313c0-6.446,5.708-11.69,12.725-11.69c7.017,0,12.723,5.244,12.723,11.69s-5.706,11.693-12.723,11.693C31.089,39.007,25.382,33.76,25.382,27.313z"/>
		<path d="M29.852,0c-0.409,0-0.796,0.188-1.048,0.51c0,0-3.854,4.911-4.53,5.771c-0.375,0.001-4.512,0.006-5.904,0.007c-0.216-0.71-0.454-1.497-0.454-1.497c-0.169-0.56-0.684-0.943-1.269-0.946L8.323,3.803c-0.381-0.002-0.745,0.159-1,0.444L0.34,12.05C0.12,12.296-0.001,12.614,0,12.943l0.111,32.035c0.001,0.37,0.156,0.724,0.427,0.974l5.587,5.168c0.246,0.227,0.569,0.354,0.904,0.354l50.001,0.058c0.356,0,0.7-0.144,0.953-0.401l5.571-5.684c0.245-0.247,0.381-0.58,0.383-0.927l0.109-30.89c0-0.367-0.148-0.717-0.414-0.97l-6.193-5.895c-0.248-0.236-0.575-0.368-0.919-0.368c0,0-3.31,0-4.224,0c-0.687-0.767-5.282-5.896-5.282-5.896c-0.253-0.28-0.612-0.442-0.989-0.443C46.025,0.059,29.854,0,29.852,0z M16.395,10.289l9.178-0.012c0.408,0,0.794-0.188,1.047-0.51c0,0,3.848-4.9,4.525-5.763c1.147,0.004,12.804,0.046,13.683,0.049c0.685,0.764,5.285,5.9,5.285,5.9c0.252,0.282,0.614,0.443,0.991,0.443c0,0,3.505,0,4.349,0c0.611,0.581,3.938,3.748,4.59,4.369c-0.003,1.064-0.097,27.653-0.102,28.655c-0.472,0.481-3.437,3.505-4.03,4.112c-1.07-0.003-46.84-0.058-47.835-0.058c-0.435-0.401-3.33-3.08-3.971-3.672c-0.002-0.739-0.1-28.861-0.103-29.85c0.589-0.659,5.188-5.796,5.501-6.146c0.481,0.002,3.824,0.019,5.156,0.025c0.217,0.714,0.458,1.51,0.458,1.51C15.288,9.906,15.808,10.29,16.395,10.289z"/>
		<circle cx="11.868" cy="17.27" r="2.5"/>
	</symbol>

	<symbol id="icon-exif-exposure" viewBox="0 0 56.761 64.295" overflow="visible" enable-background="new 0 0 56.761 64.295" xml:space="preserve">
		<title>exposure.svg</title>
		<path d="M53.313,34.953c-0.457,14.065-10.609,25.379-24.925,25.879C14.08,61.331,3.895,48.26,3.462,34.953C3.005,20.894,14.755,9.548,28.387,9.072C42.695,8.572,52.881,21.645,53.313,34.953c0.073,2.218,3.521,2.225,3.447,0C56.24,18.975,44.611,6.191,28.387,5.625C12.173,5.059,0.507,19.832,0.015,34.953C-0.504,50.922,12.941,63.74,28.387,64.279c16.213,0.565,27.881-14.205,28.373-29.326C56.833,32.729,53.386,32.736,53.313,34.953z"/>
		<path d="M30.338,33.003c-4.298-4.235-8.596-8.47-12.893-12.705c-2.534-2.498-6.436,1.4-3.9,3.9c4.297,4.235,8.595,8.47,12.892,12.705C28.972,39.4,32.873,35.503,30.338,33.003z"/>
		<rect x="24.921" width="6.896" height="6.954"/>
		<rect x="46.096" y="9.897" transform="matrix(0.7189 -0.6951 0.6951 0.7189 4.6966 38.3044)" width="7.231" height="6.896"/>
	</symbol>

	<symbol id="icon-exif-flash" viewBox="0 0 39.757 63.749" overflow="visible" enable-background="new 0 0 39.757 63.749" xml:space="preserve">
		<title>flash.svg</title>
		<path d="M2.682,37.415C11.658,25.872,20.633,14.33,29.609,2.786c-0.892-0.519-1.784-1.039-2.677-1.558c-2.371,8.552-4.742,17.104-7.113,25.655c-0.278,1.005,0.505,2.028,1.545,2.028c5.616,0,11.232,0,16.85,0c-0.379-0.912-0.756-1.823-1.134-2.734c-9.285,11.6-18.571,23.198-27.856,34.799c0.892,0.519,1.784,1.039,2.677,1.559c2.597-8.665,5.193-17.33,7.79-25.994c0.299-0.993-0.52-2.037-1.545-2.027c-5.532,0.057-11.064,0.112-16.597,0.169c-2.065,0.021-2.066,3.225,0,3.204c5.532-0.057,11.064-0.113,16.597-0.169c-0.515-0.676-1.03-1.352-1.545-2.027c-2.597,8.664-5.193,17.329-7.79,25.993c-0.436,1.457,1.648,2.845,2.677,1.559c9.286-11.601,18.571-23.2,27.857-34.8c0.832-1.04,0.38-2.734-1.132-2.734c-5.617,0-11.233,0-16.85,0c0.515,0.676,1.031,1.352,1.544,2.028c2.372-8.552,4.743-17.104,7.113-25.655c0.399-1.439-1.649-2.88-2.677-1.559C18.368,12.064,9.393,23.608,0.417,35.15C-0.835,36.76,1.415,39.044,2.682,37.415z"/>
	</symbol>

	<symbol id="icon-exif-focal_length" viewBox="0 0 62.777 63.977" overflow="visible" enable-background="new 0 0 62.777 63.977" xml:space="preserve">
		<title>focal_length.svg</title>
		<path d="M60.216,0.2C40.419,10.256,20.623,20.312,0.827,30.367c-1.11,0.564-1.095,2.352,0,2.92c19.585,10.16,39.17,20.323,58.756,30.483c1.932,1.001,3.642-1.915,1.706-2.918C41.704,50.689,22.118,40.529,2.533,30.367c0,0.974,0,1.947,0,2.92C22.329,23.231,42.125,13.175,61.922,3.119C63.865,2.131,62.154-0.785,60.216,0.2z"/>
		<path d="M24.092,31.791c0.157,4.845,1.417,15.354,8.273,15.354c6.855,0,8.114-10.51,8.271-15.354c0.156-4.84-1.621-15.353-8.271-15.353C25.509,16.438,24.249,26.946,24.092,31.791c-0.071,2.182,3.31,2.175,3.381,0c0.125-3.855,0.515-9.206,3.995-11.715c4.225-3.046,5.742,10.341,5.787,11.715c0.121,3.758-0.66,9.312-3.994,11.716c-4.225,3.046-5.744-10.343-5.788-11.716C27.402,29.617,24.021,29.61,24.092,31.791z"/>
		<path d="M47.965,10.293c8.783,13.439,8.927,30.798-0.42,43.89c-1.271,1.779,1.663,3.465,2.918,1.706c10.005-14.013,9.832-32.902,0.42-47.303C49.695,6.77,46.768,8.462,47.965,10.293z"/>
	</symbol>

	<symbol id="icon-exif-iso" viewBox="0 0 64.166 45.574" overflow="visible" enable-background="new 0 0 64.166 45.574" xml:space="preserve">
		<title>iso.svg</title>
		<path d="M7.006,35.206V11.002c0-1.257,0.242-2.2,0.725-2.829S8.837,7.23,9.603,7.23c0.789,0,1.428,0.311,1.917,0.933c0.489,0.622,0.733,1.568,0.733,2.839v24.204c0,1.272-0.245,2.222-0.733,2.851C11.031,38.684,10.392,39,9.603,39c-0.754,0-1.375-0.318-1.864-0.953C7.25,37.411,7.006,36.464,7.006,35.206z"/>
		<path d="M37.506,29.27c0,1.856-0.407,3.522-1.22,5.001s-2,2.637-3.564,3.473C31.157,38.581,29.302,39,27.156,39c-2.573,0-4.695-0.57-6.366-1.712c-1.184-0.823-2.145-1.923-2.884-3.297c-0.739-1.376-1.109-2.714-1.109-4.011c0-0.755,0.222-1.4,0.666-1.938c0.443-0.537,1.008-0.806,1.695-0.806c0.556,0,1.026,0.21,1.41,0.628c0.384,0.42,0.713,1.043,0.985,1.866c0.332,0.979,0.69,1.797,1.076,2.453c0.386,0.658,0.928,1.199,1.628,1.626c0.699,0.426,1.619,0.639,2.757,0.639c1.565,0,2.837-0.431,3.816-1.288c0.979-0.861,1.468-1.934,1.468-3.22c0-1.021-0.265-1.849-0.792-2.483c-0.527-0.637-1.209-1.122-2.046-1.458c-0.836-0.336-1.954-0.691-3.354-1.069c-1.872-0.517-3.438-1.122-4.699-1.814c-1.261-0.691-2.262-1.636-3.002-2.831c-0.741-1.195-1.11-2.681-1.11-4.457c0-1.691,0.391-3.194,1.173-4.508c0.782-1.314,1.914-2.325,3.396-3.03c1.481-0.706,3.223-1.06,5.226-1.06c1.599,0,2.982,0.234,4.149,0.703c1.167,0.469,2.137,1.091,2.907,1.867c0.769,0.776,1.332,1.59,1.688,2.443c0.354,0.853,0.533,1.685,0.533,2.496c0,0.742-0.223,1.409-0.666,2.003c-0.446,0.594-0.999,0.891-1.663,0.891c-0.604,0-1.063-0.178-1.377-0.535c-0.314-0.356-0.655-0.94-1.021-1.751c-0.475-1.16-1.044-2.064-1.708-2.715c-0.665-0.649-1.732-0.975-3.203-0.975c-1.364,0-2.465,0.353-3.301,1.059c-0.836,0.706-1.254,1.555-1.254,2.547c0,0.616,0.142,1.147,0.427,1.594c0.284,0.447,0.676,0.832,1.174,1.153c0.499,0.322,1.002,0.573,1.513,0.755c0.51,0.182,1.352,0.447,2.526,0.796c1.47,0.406,2.8,0.853,3.992,1.342c1.191,0.49,2.205,1.084,3.04,1.783c0.836,0.699,1.489,1.584,1.957,2.652C37.27,26.408,37.506,27.718,37.506,29.27z"/>
		<path d="M58.845,23.405c0,2.291-0.119,4.259-0.356,5.907c-0.238,1.647-0.676,3.143-1.316,4.482c-0.808,1.651-1.85,2.925-3.129,3.821c-1.28,0.894-2.702,1.343-4.266,1.343c-1.801,0-3.415-0.603-4.843-1.804c-1.429-1.204-2.504-2.867-3.226-4.994c-0.368-1.159-0.637-2.439-0.809-3.843c-0.172-1.404-0.256-2.923-0.256-4.557c0-2.108,0.095-4.007,0.284-5.697c0.188-1.689,0.484-3.142,0.886-4.356c0.7-2.015,1.715-3.55,3.049-4.606c1.333-1.056,2.924-1.584,4.773-1.584c1.22,0,2.329,0.234,3.323,0.703c0.996,0.468,1.87,1.153,2.623,2.054c0.752,0.901,1.389,2.016,1.911,3.343C58.394,15.922,58.845,19.186,58.845,23.405z M53.967,22.986c0-2.556-0.131-4.646-0.393-6.273c-0.26-1.627-0.699-2.855-1.313-3.687c-0.618-0.831-1.471-1.246-2.56-1.246c-1.565,0-2.653,0.929-3.265,2.786c-0.609,1.857-0.914,4.72-0.914,8.587c0,2.625,0.13,4.776,0.391,6.451c0.26,1.676,0.699,2.943,1.315,3.801c0.616,0.86,1.452,1.289,2.507,1.289c1.09,0,1.943-0.445,2.561-1.34c0.615-0.895,1.048-2.173,1.297-3.833C53.841,27.86,53.967,25.682,53.967,22.986z"/>
		<path d="M62.854,42.95c-20.515,0-41.028,0-61.543,0c0.438,0.437,0.875,0.875,1.312,1.312c0-14.316,0-28.633,0-42.95C2.186,1.749,1.749,2.186,1.312,2.624c20.515,0,41.028,0,61.543,0c-0.438-0.438-0.875-0.875-1.312-1.312c0,14.317,0,28.633,0,42.95c0,1.692,2.623,1.692,2.623,0c0-14.316,0-28.633,0-42.95C64.166,0.597,63.569,0,62.854,0C42.34,0,21.826,0,1.312,0C0.597,0,0,0.597,0,1.312c0,14.317,0,28.633,0,42.95c0,0.715,0.597,1.313,1.312,1.313c20.515,0,41.028,0,61.543,0C64.547,45.574,64.547,42.95,62.854,42.95z"/>
	</symbol>

	<symbol id="icon-exif-lens" viewBox="0 0 63.653 37.932" overflow="visible" enable-background="new 0 0 63.653 37.932" xml:space="preserve">
		<title>lens.svg</title>
		<path d="M42.124,0.544c-6.654,8.635-7.127,28.599-0.023,37.055c0.815,0.97,2.196-0.425,1.388-1.387C37,28.488,37.793,9.354,43.818,1.534C44.591,0.532,42.884-0.443,42.124,0.544z"/>
		<path d="M57.824,18.564c-0.106,3.754-0.473,8.005-3.019,11.001c-3.97,4.671-5.823-10.185-5.847-11.001c-0.104-3.642,0.579-8.13,3.021-11.001C55.949,2.893,57.802,17.747,57.824,18.564c0.036,1.263,1.999,1.267,1.963,0c-0.107-3.725-0.749-13.674-6.395-13.674c-5.647,0-6.289,9.949-6.396,13.674c-0.107,3.718,0.883,13.674,6.396,13.674c5.647,0,6.287-9.949,6.395-13.674C59.823,17.298,57.86,17.302,57.824,18.564z"/>
		<path d="M61.69,18.943c-0.135,5.413-0.578,11.785-4.336,16.06c-5.527,6.288-8.151-14.663-8.186-16.06c-0.133-5.29,0.705-11.927,4.337-16.059C59.033-3.404,61.656,17.547,61.69,18.943c0.032,1.263,1.995,1.266,1.963,0C63.534,14.195,62.893,0,55.431,0c-7.463,0-8.105,14.194-8.225,18.943c-0.119,4.739,0.91,18.944,8.225,18.944c7.462,0,8.104-14.195,8.223-18.944C63.686,17.677,61.723,17.68,61.69,18.943z"/>
		<path d="M33.604,0.486c-6.54,8.682-7.011,28.6-0.017,37.113c0.804,0.979,2.184-0.417,1.388-1.387c-6.38-7.768-5.609-26.859,0.323-34.736C36.062,0.464,34.355-0.512,33.604,0.486z"/>
		<path d="M24.813,19.379c-0.199,2.174-5.408,2.174-5.607,0C19.015,17.298,24.61,17.164,24.813,19.379c0.115,1.25,2.078,1.261,1.962,0c-0.435-4.743-9.097-4.743-9.532,0c-0.224,2.433,2.916,3.466,4.766,3.544c2.2,0.092,4.553-1.226,4.766-3.544C26.891,18.119,24.927,18.129,24.813,19.379z"/>
		<path d="M15.265,0.486c-6.54,8.682-7.012,28.6-0.018,37.113c0.804,0.979,2.185-0.417,1.388-1.387c-6.38-7.768-5.609-26.859,0.324-34.736C17.721,0.465,16.016-0.512,15.265,0.486z"/>
		<path d="M5.025,4.188c-6.363,6.711-6.968,23.106-0.171,29.686c0.909,0.881,2.299-0.506,1.388-1.387C0.276,26.712,0.813,11.482,6.413,5.576C7.283,4.658,5.897,3.268,5.025,4.188z"/>
		<path d="M5.719,5.863c2.636,0,5.271,0,7.907,0c1.265,0,1.265-1.962,0-1.962c-2.636,0-5.271,0-7.907,0C4.453,3.9,4.453,5.863,5.719,5.863z"/>
		<path d="M5.69,34.19c2.635,0,5.271,0,7.906,0c1.265,0,1.265-1.963,0-1.963c-2.635,0-5.271,0-7.906,0C4.424,32.227,4.424,34.19,5.69,34.19z"/>
		<path d="M16.112,1.962c13.145,0,26.29,0,39.435,0c1.266,0,1.266-1.962,0-1.962c-13.146,0-26.29,0-39.435,0C14.846,0,14.846,1.962,16.112,1.962z"/>
		<path d="M16.694,37.887c13.146,0,26.29,0,39.437,0c1.266,0,1.266-1.963,0-1.963c-13.146,0-26.291,0-39.437,0C15.429,35.924,15.429,37.887,16.694,37.887z"/>
	</symbol>
</svg>
