<svg version="1.1" class="icon-exif" id="icon-exif-flash" viewBox="0 0 39.757 63.749" overflow="visible" enable-background="new 0 0 39.757 63.749" xml:space="preserve">
	<path d="M2.682,37.415C11.658,25.872,20.633,14.33,29.609,2.786c-0.892-0.519-1.784-1.039-2.677-1.558c-2.371,8.552-4.742,17.104-7.113,25.655c-0.278,1.005,0.505,2.028,1.545,2.028c5.616,0,11.232,0,16.85,0c-0.379-0.912-0.756-1.823-1.134-2.734c-9.285,11.6-18.571,23.198-27.856,34.799c0.892,0.519,1.784,1.039,2.677,1.559c2.597-8.665,5.193-17.33,7.79-25.994c0.299-0.993-0.52-2.037-1.545-2.027c-5.532,0.057-11.064,0.112-16.597,0.169c-2.065,0.021-2.066,3.225,0,3.204c5.532-0.057,11.064-0.113,16.597-0.169c-0.515-0.676-1.03-1.352-1.545-2.027c-2.597,8.664-5.193,17.329-7.79,25.993c-0.436,1.457,1.648,2.845,2.677,1.559c9.286-11.601,18.571-23.2,27.857-34.8c0.832-1.04,0.38-2.734-1.132-2.734c-5.617,0-11.233,0-16.85,0c0.515,0.676,1.031,1.352,1.544,2.028c2.372-8.552,4.743-17.104,7.113-25.655c0.399-1.439-1.649-2.88-2.677-1.559C18.368,12.064,9.393,23.608,0.417,35.15C-0.835,36.76,1.415,39.044,2.682,37.415z"/>
</svg>
