<svg version="1.1" class="icon-exif" id="icon-exif-focal_length" viewBox="0 0 62.777 63.977" overflow="visible" enable-background="new 0 0 62.777 63.977" xml:space="preserve">
	<path d="M60.216,0.2C40.419,10.256,20.623,20.312,0.827,30.367c-1.11,0.564-1.095,2.352,0,2.92c19.585,10.16,39.17,20.323,58.756,30.483c1.932,1.001,3.642-1.915,1.706-2.918C41.704,50.689,22.118,40.529,2.533,30.367c0,0.974,0,1.947,0,2.92C22.329,23.231,42.125,13.175,61.922,3.119C63.865,2.131,62.154-0.785,60.216,0.2z"/>
	<path d="M24.092,31.791c0.157,4.845,1.417,15.354,8.273,15.354c6.855,0,8.114-10.51,8.271-15.354c0.156-4.84-1.621-15.353-8.271-15.353C25.509,16.438,24.249,26.946,24.092,31.791c-0.071,2.182,3.31,2.175,3.381,0c0.125-3.855,0.515-9.206,3.995-11.715c4.225-3.046,5.742,10.341,5.787,11.715c0.121,3.758-0.66,9.312-3.994,11.716c-4.225,3.046-5.744-10.343-5.788-11.716C27.402,29.617,24.021,29.61,24.092,31.791z"/>
	<path d="M47.965,10.293c8.783,13.439,8.927,30.798-0.42,43.89c-1.271,1.779,1.663,3.465,2.918,1.706c10.005-14.013,9.832-32.902,0.42-47.303C49.695,6.77,46.768,8.462,47.965,10.293z"/>
</svg>
