<svg version="1.1" class="icon-exif" id="icon-exif-iso" viewBox="0 0 64.166 45.574" overflow="visible" enable-background="new 0 0 64.166 45.574" xml:space="preserve">
	<path d="M7.006,35.206V11.002c0-1.257,0.242-2.2,0.725-2.829S8.837,7.23,9.603,7.23c0.789,0,1.428,0.311,1.917,0.933c0.489,0.622,0.733,1.568,0.733,2.839v24.204c0,1.272-0.245,2.222-0.733,2.851C11.031,38.684,10.392,39,9.603,39c-0.754,0-1.375-0.318-1.864-0.953C7.25,37.411,7.006,36.464,7.006,35.206z"/>
	<path d="M37.506,29.27c0,1.856-0.407,3.522-1.22,5.001s-2,2.637-3.564,3.473C31.157,38.581,29.302,39,27.156,39c-2.573,0-4.695-0.57-6.366-1.712c-1.184-0.823-2.145-1.923-2.884-3.297c-0.739-1.376-1.109-2.714-1.109-4.011c0-0.755,0.222-1.4,0.666-1.938c0.443-0.537,1.008-0.806,1.695-0.806c0.556,0,1.026,0.21,1.41,0.628c0.384,0.42,0.713,1.043,0.985,1.866c0.332,0.979,0.69,1.797,1.076,2.453c0.386,0.658,0.928,1.199,1.628,1.626c0.699,0.426,1.619,0.639,2.757,0.639c1.565,0,2.837-0.431,3.816-1.288c0.979-0.861,1.468-1.934,1.468-3.22c0-1.021-0.265-1.849-0.792-2.483c-0.527-0.637-1.209-1.122-2.046-1.458c-0.836-0.336-1.954-0.691-3.354-1.069c-1.872-0.517-3.438-1.122-4.699-1.814c-1.261-0.691-2.262-1.636-3.002-2.831c-0.741-1.195-1.11-2.681-1.11-4.457c0-1.691,0.391-3.194,1.173-4.508c0.782-1.314,1.914-2.325,3.396-3.03c1.481-0.706,3.223-1.06,5.226-1.06c1.599,0,2.982,0.234,4.149,0.703c1.167,0.469,2.137,1.091,2.907,1.867c0.769,0.776,1.332,1.59,1.688,2.443c0.354,0.853,0.533,1.685,0.533,2.496c0,0.742-0.223,1.409-0.666,2.003c-0.446,0.594-0.999,0.891-1.663,0.891c-0.604,0-1.063-0.178-1.377-0.535c-0.314-0.356-0.655-0.94-1.021-1.751c-0.475-1.16-1.044-2.064-1.708-2.715c-0.665-0.649-1.732-0.975-3.203-0.975c-1.364,0-2.465,0.353-3.301,1.059c-0.836,0.706-1.254,1.555-1.254,2.547c0,0.616,0.142,1.147,0.427,1.594c0.284,0.447,0.676,0.832,1.174,1.153c0.499,0.322,1.002,0.573,1.513,0.755c0.51,0.182,1.352,0.447,2.526,0.796c1.47,0.406,2.8,0.853,3.992,1.342c1.191,0.49,2.205,1.084,3.04,1.783c0.836,0.699,1.489,1.584,1.957,2.652C37.27,26.408,37.506,27.718,37.506,29.27z"/>
	<path d="M58.845,23.405c0,2.291-0.119,4.259-0.356,5.907c-0.238,1.647-0.676,3.143-1.316,4.482c-0.808,1.651-1.85,2.925-3.129,3.821c-1.28,0.894-2.702,1.343-4.266,1.343c-1.801,0-3.415-0.603-4.843-1.804c-1.429-1.204-2.504-2.867-3.226-4.994c-0.368-1.159-0.637-2.439-0.809-3.843c-0.172-1.404-0.256-2.923-0.256-4.557c0-2.108,0.095-4.007,0.284-5.697c0.188-1.689,0.484-3.142,0.886-4.356c0.7-2.015,1.715-3.55,3.049-4.606c1.333-1.056,2.924-1.584,4.773-1.584c1.22,0,2.329,0.234,3.323,0.703c0.996,0.468,1.87,1.153,2.623,2.054c0.752,0.901,1.389,2.016,1.911,3.343C58.394,15.922,58.845,19.186,58.845,23.405z M53.967,22.986c0-2.556-0.131-4.646-0.393-6.273c-0.26-1.627-0.699-2.855-1.313-3.687c-0.618-0.831-1.471-1.246-2.56-1.246c-1.565,0-2.653,0.929-3.265,2.786c-0.609,1.857-0.914,4.72-0.914,8.587c0,2.625,0.13,4.776,0.391,6.451c0.26,1.676,0.699,2.943,1.315,3.801c0.616,0.86,1.452,1.289,2.507,1.289c1.09,0,1.943-0.445,2.561-1.34c0.615-0.895,1.048-2.173,1.297-3.833C53.841,27.86,53.967,25.682,53.967,22.986z"/>
	<path d="M62.854,42.95c-20.515,0-41.028,0-61.543,0c0.438,0.437,0.875,0.875,1.312,1.312c0-14.316,0-28.633,0-42.95C2.186,1.749,1.749,2.186,1.312,2.624c20.515,0,41.028,0,61.543,0c-0.438-0.438-0.875-0.875-1.312-1.312c0,14.317,0,28.633,0,42.95c0,1.692,2.623,1.692,2.623,0c0-14.316,0-28.633,0-42.95C64.166,0.597,63.569,0,62.854,0C42.34,0,21.826,0,1.312,0C0.597,0,0,0.597,0,1.312c0,14.317,0,28.633,0,42.95c0,0.715,0.597,1.313,1.312,1.313c20.515,0,41.028,0,61.543,0C64.547,45.574,64.547,42.95,62.854,42.95z"/>
</svg>
