<svg version="1.1" class="icon-exif" id="icon-exif-lens" viewBox="0 0 63.653 37.932" overflow="visible" enable-background="new 0 0 63.653 37.932" xml:space="preserve">
	<path d="M42.124,0.544c-6.654,8.635-7.127,28.599-0.023,37.055c0.815,0.97,2.196-0.425,1.388-1.387C37,28.488,37.793,9.354,43.818,1.534C44.591,0.532,42.884-0.443,42.124,0.544z"/>
	<path d="M57.824,18.564c-0.106,3.754-0.473,8.005-3.019,11.001c-3.97,4.671-5.823-10.185-5.847-11.001c-0.104-3.642,0.579-8.13,3.021-11.001C55.949,2.893,57.802,17.747,57.824,18.564c0.036,1.263,1.999,1.267,1.963,0c-0.107-3.725-0.749-13.674-6.395-13.674c-5.647,0-6.289,9.949-6.396,13.674c-0.107,3.718,0.883,13.674,6.396,13.674c5.647,0,6.287-9.949,6.395-13.674C59.823,17.298,57.86,17.302,57.824,18.564z"/>
	<path d="M61.69,18.943c-0.135,5.413-0.578,11.785-4.336,16.06c-5.527,6.288-8.151-14.663-8.186-16.06c-0.133-5.29,0.705-11.927,4.337-16.059C59.033-3.404,61.656,17.547,61.69,18.943c0.032,1.263,1.995,1.266,1.963,0C63.534,14.195,62.893,0,55.431,0c-7.463,0-8.105,14.194-8.225,18.943c-0.119,4.739,0.91,18.944,8.225,18.944c7.462,0,8.104-14.195,8.223-18.944C63.686,17.677,61.723,17.68,61.69,18.943z"/>
	<path d="M33.604,0.486c-6.54,8.682-7.011,28.6-0.017,37.113c0.804,0.979,2.184-0.417,1.388-1.387c-6.38-7.768-5.609-26.859,0.323-34.736C36.062,0.464,34.355-0.512,33.604,0.486z"/>
	<path d="M24.813,19.379c-0.199,2.174-5.408,2.174-5.607,0C19.015,17.298,24.61,17.164,24.813,19.379c0.115,1.25,2.078,1.261,1.962,0c-0.435-4.743-9.097-4.743-9.532,0c-0.224,2.433,2.916,3.466,4.766,3.544c2.2,0.092,4.553-1.226,4.766-3.544C26.891,18.119,24.927,18.129,24.813,19.379z"/>
	<path d="M15.265,0.486c-6.54,8.682-7.012,28.6-0.018,37.113c0.804,0.979,2.185-0.417,1.388-1.387c-6.38-7.768-5.609-26.859,0.324-34.736C17.721,0.465,16.016-0.512,15.265,0.486z"/>
	<path d="M5.025,4.188c-6.363,6.711-6.968,23.106-0.171,29.686c0.909,0.881,2.299-0.506,1.388-1.387C0.276,26.712,0.813,11.482,6.413,5.576C7.283,4.658,5.897,3.268,5.025,4.188z"/>
	<path d="M5.719,5.863c2.636,0,5.271,0,7.907,0c1.265,0,1.265-1.962,0-1.962c-2.636,0-5.271,0-7.907,0C4.453,3.9,4.453,5.863,5.719,5.863z"/>
	<path d="M5.69,34.19c2.635,0,5.271,0,7.906,0c1.265,0,1.265-1.963,0-1.963c-2.635,0-5.271,0-7.906,0C4.424,32.227,4.424,34.19,5.69,34.19z"/>
	<path d="M16.112,1.962c13.145,0,26.29,0,39.435,0c1.266,0,1.266-1.962,0-1.962c-13.146,0-26.29,0-39.435,0C14.846,0,14.846,1.962,16.112,1.962z"/>
	<path d="M16.694,37.887c13.146,0,26.29,0,39.437,0c1.266,0,1.266-1.963,0-1.963c-13.146,0-26.291,0-39.437,0C15.429,35.924,15.429,37.887,16.694,37.887z"/>
</svg>
