<svg version="1.1" class="icon-exif" id="icon-exif-tag" x="0px" y="0px" viewBox="0 0 96 120" enable-background="new 0 0 96 96" xml:space="preserve">
	<path d="M76.284,13.856c-1.604,0-3.104,0.616-4.248,1.752c-1.132,1.128-1.752,2.636-1.752,4.248c0,1.6,0.62,3.108,1.752,4.248  c2.264,2.26,6.224,2.26,8.483,0c1.133-1.132,1.756-2.64,1.756-4.248c0-1.6-0.623-3.108-1.756-4.248  C79.389,14.468,77.893,13.856,76.284,13.856z"/>
	<path d="M93.107,16.888c0-3.744-1.451-7.392-4.092-10.036C86.372,4.216,82.859,2.48,79.2,2.48h-0.005L60.813,2.024  c-0.572-0.012-1.101,0.464-1.5,0.864L2.744,59.452c-0.372,0.376-0.584,0.884-0.584,1.416s0.212,1.04,0.584,1.416L33.86,93.393  c0.392,0.392,0.904,0.584,1.416,0.584c0.512,0,1.024-0.213,1.416-0.597l56.564-56.588c0.4-0.396,0.607-0.968,0.584-1.528  L93.107,16.888z M83.352,26.924c-1.892,1.888-4.399,2.92-7.072,2.92c-2.672,0-5.18-1.04-7.075-2.92  c-1.896-1.88-2.925-4.4-2.925-7.072s1.041-5.188,2.925-7.076c3.776-3.776,10.364-3.772,14.14,0c1.889,1.888,2.924,4.404,2.924,7.076  S85.244,25.04,83.352,26.924z"/>
</svg>
